<svg xmlns="http://www.w3.org/2000/svg" width="200" height="200" viewBox="0 0 200 200" version="1.1">
	<path d="M 21.053 12.224 C 16.040 14.908, 11.986 21.276, 12.022 26.407 C 12.055 30.991, 15.331 37.387, 18.975 39.982 C 22.758 42.676, 29.613 43.679, 33.936 42.172 C 36.773 41.183, 40.357 42.540, 80.124 59.657 L 123.236 78.214 125.702 76.357 C 127.276 75.172, 130.344 69.437, 134.185 60.500 C 144.447 36.624, 144.440 36.726, 135.943 33.071 C 128.364 29.810, 127.252 30.629, 121.551 43.662 C 118.944 49.623, 116.646 54.671, 116.443 54.880 C 116.240 55.089, 100.132 48.421, 80.647 40.063 L 45.221 24.867 43.507 20.379 C 40.136 11.554, 29.512 7.695, 21.053 12.224 M 166.368 13.045 C 162.090 14.344, 156.275 21.016, 155.412 25.616 C 155.011 27.756, 155.235 31.392, 155.938 34.133 L 157.163 38.916 140.419 78.208 C 131.210 99.819, 123.123 119.051, 122.449 120.947 C 120.243 127.148, 121.443 128.146, 141.107 136.463 C 150.908 140.608, 159.539 144, 160.289 144 C 163.201 144, 168 136.287, 168 131.608 C 168 128.268, 165.549 126.513, 154.433 121.892 C 148.970 119.620, 144.412 117.690, 144.305 117.603 C 144.198 117.515, 150.948 101.386, 159.305 81.761 L 174.500 46.080 179 43.715 C 190.011 37.928, 191.184 22.100, 181.094 15.455 C 176.900 12.693, 170.808 11.696, 166.368 13.045 M 74.958 20.593 C 71.407 28.507, 71.336 29.570, 74.250 31.149 C 80.742 34.669, 112.524 47.736, 113.593 47.326 C 115.261 46.686, 120.286 34.725, 119.846 32.441 C 119.600 31.159, 113.975 28.225, 100.499 22.347 C 90.050 17.789, 80.694 14.046, 79.708 14.030 C 78.455 14.009, 77.028 15.980, 74.958 20.593 M 22.455 20.455 C 17.229 25.681, 20.097 34.072, 27.623 35.575 C 32.174 36.484, 37.400 31.716, 37.400 26.654 C 37.400 18.809, 27.999 14.910, 22.455 20.455 M 167.500 21.208 C 164.301 23.042, 163.066 25.241, 163.032 29.161 C 163.007 32.043, 163.655 33.373, 166.077 35.411 C 169.583 38.361, 171.891 38.625, 175.928 36.537 C 179.076 34.909, 180 33.199, 180 29 C 180 24.801, 179.076 23.091, 175.928 21.463 C 172.564 19.723, 170.213 19.652, 167.500 21.208 M 33.848 59.750 C 29.877 64.505, 28.764 72.211, 31.776 74.092 C 32.753 74.702, 38.040 77.085, 43.526 79.388 C 49.012 81.691, 53.461 83.927, 53.413 84.355 C 53.365 84.784, 46.636 101.288, 38.460 121.030 C 25.029 153.461, 23.319 157.040, 20.736 158.109 C 13.009 161.310, 9.395 173.927, 14.185 180.976 C 21.324 191.480, 34.830 191.908, 42.268 181.864 C 45.119 178.015, 45.668 170.808, 43.481 165.959 L 41.694 161.995 58.490 121.747 C 67.728 99.611, 75.484 79.916, 75.726 77.980 C 76.045 75.426, 75.663 74.017, 74.333 72.845 C 71.636 70.468, 41.106 58, 37.983 58 C 36.513 58, 34.652 58.788, 33.848 59.750 M 169.272 74.250 C 167.684 76.292, 153 111.693, 153 113.481 C 153 115.096, 164.279 121, 167.363 121 C 168.241 121, 172.017 113.435, 177.385 100.922 C 182.123 89.880, 186 80.411, 186 79.881 C 186 78.853, 173.690 73, 171.529 73 C 170.823 73, 169.807 73.563, 169.272 74.250 M 30.159 81.318 C 28.185 83.715, 13.933 119.539, 14.212 121.403 C 14.632 124.214, 27.745 129.709, 29.542 127.827 C 31.211 126.080, 46 90.124, 46 87.815 C 46 86.069, 43.388 84.588, 34.816 81.474 C 31.994 80.448, 30.905 80.412, 30.159 81.318 M 72.259 124.750 C 71.180 125.713, 67.082 134.237, 63.152 143.694 C 54.869 163.627, 54.859 164.402, 62.850 167.840 C 70.590 171.170, 71.851 170.251, 77.272 157.326 C 79.769 151.372, 82.417 146.402, 83.156 146.283 C 83.895 146.163, 100.227 152.708, 119.448 160.827 C 153.050 175.020, 154.427 175.707, 155.196 178.676 C 156.265 182.801, 162.963 188.715, 167.537 189.573 C 174.606 190.899, 183.007 186.621, 185.621 180.364 C 191.121 167.201, 179.958 154.189, 166.300 157.842 C 162.044 158.981, 161.798 158.893, 119.149 140.993 C 95.569 131.097, 75.814 123, 75.249 123 C 74.684 123, 73.339 123.787, 72.259 124.750 M 84.293 154.250 C 82.334 156.822, 78.892 166.224, 79.190 168.186 C 79.437 169.809, 83.538 171.902, 99.425 178.513 C 110.384 183.072, 119.885 186.598, 120.538 186.347 C 122.113 185.742, 127.409 172.499, 126.748 170.816 C 126.319 169.725, 87.855 152.949, 85.872 152.988 C 85.527 152.994, 84.817 153.563, 84.293 154.250 M 22.455 166.455 C 19.080 169.829, 19.064 175.772, 22.421 178.926 C 25.929 182.221, 31.707 182.042, 34.716 178.544 C 39.748 172.694, 36.032 164, 28.500 164 C 26.021 164, 24.149 164.760, 22.455 166.455 M 167.357 164.992 C 162.735 166.857, 160.581 173.480, 163.079 178.147 C 164.427 180.667, 169.415 182.835, 172.505 182.244 C 180.963 180.627, 182.276 168.685, 174.360 165.377 C 170.625 163.816, 170.312 163.799, 167.357 164.992" stroke="none" fill="black" fill-rule="evenodd"/>
</svg>